<mxfile host="app.diagrams.net" agent="Mozilla/5.0 (Windows NT 10.0; Win64; x64) AppleWebKit/537.36 (KHTML, like Gecko) Chrome/127.0.0.0 Safari/537.36 OPR/113.0.0.0" version="24.7.14">
  <diagram name="Página-1" id="YbsIReb0oH9DCjvmLKbj">
    <mxGraphModel grid="1" page="1" gridSize="10" guides="1" tooltips="1" connect="1" arrows="1" fold="1" pageScale="1" pageWidth="827" pageHeight="1169" math="0" shadow="0">
      <root>
        <mxCell id="0" />
        <mxCell id="1" parent="0" />
        <mxCell id="WXc_VqxErk6z-LHr27t_-1" value="" style="swimlane;html=1;childLayout=stackLayout;startSize=20;rounded=0;shadow=0;comic=0;labelBackgroundColor=none;strokeWidth=1;fontFamily=Verdana;fontSize=12;align=center;direction=east;" vertex="1" parent="1">
          <mxGeometry x="330" y="20" width="1000" height="835" as="geometry">
            <mxRectangle y="20" width="70" height="30" as="alternateBounds" />
          </mxGeometry>
        </mxCell>
        <mxCell id="WXc_VqxErk6z-LHr27t_-2" value="Usuario" style="swimlane;html=1;startSize=20;" vertex="1" parent="WXc_VqxErk6z-LHr27t_-1">
          <mxGeometry y="20" width="250" height="815" as="geometry" />
        </mxCell>
        <mxCell id="WXc_VqxErk6z-LHr27t_-3" style="edgeStyle=orthogonalEdgeStyle;rounded=0;orthogonalLoop=1;jettySize=auto;html=1;entryX=0.5;entryY=0;entryDx=0;entryDy=0;" edge="1" parent="WXc_VqxErk6z-LHr27t_-2" source="WXc_VqxErk6z-LHr27t_-4" target="WXc_VqxErk6z-LHr27t_-6">
          <mxGeometry relative="1" as="geometry" />
        </mxCell>
        <mxCell id="WXc_VqxErk6z-LHr27t_-4" value="" style="ellipse;whiteSpace=wrap;html=1;rounded=0;shadow=0;comic=0;labelBackgroundColor=none;strokeWidth=1;fillColor=#000000;fontFamily=Verdana;fontSize=12;align=center;" vertex="1" parent="WXc_VqxErk6z-LHr27t_-2">
          <mxGeometry x="105" y="40" width="40" height="40" as="geometry" />
        </mxCell>
        <mxCell id="WXc_VqxErk6z-LHr27t_-5" value="" style="shape=mxgraph.bpmn.shape;html=1;verticalLabelPosition=bottom;labelBackgroundColor=#ffffff;verticalAlign=top;perimeter=ellipsePerimeter;outline=end;symbol=terminate;rounded=0;shadow=0;comic=0;strokeWidth=1;fontFamily=Verdana;fontSize=12;align=center;" vertex="1" parent="WXc_VqxErk6z-LHr27t_-2">
          <mxGeometry x="105" y="745" width="40" height="40" as="geometry" />
        </mxCell>
        <mxCell id="WXc_VqxErk6z-LHr27t_-6" value="Iniciar aplicación" style="rounded=0;whiteSpace=wrap;html=1;" vertex="1" parent="WXc_VqxErk6z-LHr27t_-2">
          <mxGeometry x="65" y="120" width="120" height="60" as="geometry" />
        </mxCell>
        <mxCell id="WXc_VqxErk6z-LHr27t_-7" value="Ingresa usuario y contraseña" style="whiteSpace=wrap;html=1;rounded=0;" vertex="1" parent="WXc_VqxErk6z-LHr27t_-2">
          <mxGeometry x="65" y="240" width="120" height="60" as="geometry" />
        </mxCell>
        <mxCell id="WXc_VqxErk6z-LHr27t_-87" style="edgeStyle=orthogonalEdgeStyle;rounded=0;orthogonalLoop=1;jettySize=auto;html=1;" edge="1" parent="WXc_VqxErk6z-LHr27t_-2" source="WXc_VqxErk6z-LHr27t_-85" target="WXc_VqxErk6z-LHr27t_-5">
          <mxGeometry relative="1" as="geometry" />
        </mxCell>
        <mxCell id="WXc_VqxErk6z-LHr27t_-85" value="Visualiza los datos del menú principal" style="whiteSpace=wrap;html=1;rounded=0;" vertex="1" parent="WXc_VqxErk6z-LHr27t_-2">
          <mxGeometry x="65" y="630" width="120" height="60" as="geometry" />
        </mxCell>
        <mxCell id="WXc_VqxErk6z-LHr27t_-13" value="Interfaz" style="swimlane;html=1;startSize=20;" vertex="1" parent="WXc_VqxErk6z-LHr27t_-1">
          <mxGeometry x="250" y="20" width="250" height="815" as="geometry" />
        </mxCell>
        <mxCell id="WXc_VqxErk6z-LHr27t_-14" value="Despliega apartado Inicio sesión" style="rounded=0;whiteSpace=wrap;html=1;" vertex="1" parent="WXc_VqxErk6z-LHr27t_-13">
          <mxGeometry x="65" y="120" width="120" height="60" as="geometry" />
        </mxCell>
        <mxCell id="WXc_VqxErk6z-LHr27t_-15" value="Botón iniciar sesión" style="whiteSpace=wrap;html=1;rounded=0;" vertex="1" parent="WXc_VqxErk6z-LHr27t_-13">
          <mxGeometry x="65" y="240" width="120" height="60" as="geometry" />
        </mxCell>
        <mxCell id="WXc_VqxErk6z-LHr27t_-16" value="Mensaje de error de usuario y/o contraseña" style="whiteSpace=wrap;html=1;rounded=0;" vertex="1" parent="WXc_VqxErk6z-LHr27t_-13">
          <mxGeometry x="65" y="470" width="120" height="60" as="geometry" />
        </mxCell>
        <mxCell id="WXc_VqxErk6z-LHr27t_-17" value="Muestra la pantalla principal" style="whiteSpace=wrap;html=1;rounded=0;" vertex="1" parent="WXc_VqxErk6z-LHr27t_-13">
          <mxGeometry x="65" y="630" width="120" height="60" as="geometry" />
        </mxCell>
        <mxCell id="WXc_VqxErk6z-LHr27t_-63" value="Mensaje de error de campos incompletos" style="rounded=0;whiteSpace=wrap;html=1;" vertex="1" parent="WXc_VqxErk6z-LHr27t_-13">
          <mxGeometry x="65" y="330" width="120" height="60" as="geometry" />
        </mxCell>
        <mxCell id="WXc_VqxErk6z-LHr27t_-19" value="Capa de negocio" style="swimlane;html=1;startSize=20;" vertex="1" parent="WXc_VqxErk6z-LHr27t_-1">
          <mxGeometry x="500" y="20" width="250" height="815" as="geometry">
            <mxRectangle x="500" y="20" width="40" height="970" as="alternateBounds" />
          </mxGeometry>
        </mxCell>
        <mxCell id="WXc_VqxErk6z-LHr27t_-25" value="Recopila los datos" style="whiteSpace=wrap;html=1;rounded=0;" vertex="1" parent="WXc_VqxErk6z-LHr27t_-19">
          <mxGeometry x="60" y="630" width="120" height="60" as="geometry" />
        </mxCell>
        <mxCell id="WXc_VqxErk6z-LHr27t_-67" value="" style="group" connectable="0" vertex="1" parent="WXc_VqxErk6z-LHr27t_-19">
          <mxGeometry x="60" y="315" width="105" height="100" as="geometry" />
        </mxCell>
        <mxCell id="WXc_VqxErk6z-LHr27t_-42" value="¿Campos completos?" style="rhombus;whiteSpace=wrap;html=1;rounded=0;" vertex="1" parent="WXc_VqxErk6z-LHr27t_-67">
          <mxGeometry x="15" width="90" height="90" as="geometry" />
        </mxCell>
        <mxCell id="WXc_VqxErk6z-LHr27t_-45" value="No" style="rounded=1;whiteSpace=wrap;html=1;" vertex="1" parent="WXc_VqxErk6z-LHr27t_-67">
          <mxGeometry y="35" width="20" height="20" as="geometry" />
        </mxCell>
        <mxCell id="WXc_VqxErk6z-LHr27t_-60" value="Si" style="rounded=1;whiteSpace=wrap;html=1;" vertex="1" parent="WXc_VqxErk6z-LHr27t_-67">
          <mxGeometry x="50" y="80" width="20" height="20" as="geometry" />
        </mxCell>
        <mxCell id="WXc_VqxErk6z-LHr27t_-75" value="" style="group" connectable="0" vertex="1" parent="WXc_VqxErk6z-LHr27t_-19">
          <mxGeometry x="60" y="455" width="105" height="100" as="geometry" />
        </mxCell>
        <mxCell id="WXc_VqxErk6z-LHr27t_-76" value="¿Existe el usuario?" style="rhombus;whiteSpace=wrap;html=1;rounded=0;" vertex="1" parent="WXc_VqxErk6z-LHr27t_-75">
          <mxGeometry x="15" width="90" height="90" as="geometry" />
        </mxCell>
        <mxCell id="WXc_VqxErk6z-LHr27t_-77" value="No" style="rounded=1;whiteSpace=wrap;html=1;" vertex="1" parent="WXc_VqxErk6z-LHr27t_-75">
          <mxGeometry y="35" width="20" height="20" as="geometry" />
        </mxCell>
        <mxCell id="WXc_VqxErk6z-LHr27t_-78" value="Si" style="rounded=1;whiteSpace=wrap;html=1;" vertex="1" parent="WXc_VqxErk6z-LHr27t_-75">
          <mxGeometry x="50" y="80" width="20" height="20" as="geometry" />
        </mxCell>
        <mxCell id="WXc_VqxErk6z-LHr27t_-80" style="edgeStyle=orthogonalEdgeStyle;rounded=0;orthogonalLoop=1;jettySize=auto;html=1;exitX=0.5;exitY=1;exitDx=0;exitDy=0;entryX=0.5;entryY=0;entryDx=0;entryDy=0;" edge="1" parent="WXc_VqxErk6z-LHr27t_-19" source="WXc_VqxErk6z-LHr27t_-60" target="WXc_VqxErk6z-LHr27t_-76">
          <mxGeometry relative="1" as="geometry" />
        </mxCell>
        <mxCell id="WXc_VqxErk6z-LHr27t_-26" value="Base de datos" style="swimlane;html=1;startSize=20;" vertex="1" parent="WXc_VqxErk6z-LHr27t_-1">
          <mxGeometry x="750" y="20" width="250" height="815" as="geometry">
            <mxRectangle x="500" y="20" width="40" height="970" as="alternateBounds" />
          </mxGeometry>
        </mxCell>
        <mxCell id="WXc_VqxErk6z-LHr27t_-27" value="Verifica los datos del usuario" style="whiteSpace=wrap;html=1;rounded=0;" vertex="1" parent="WXc_VqxErk6z-LHr27t_-26">
          <mxGeometry x="65" y="580" width="120" height="60" as="geometry" />
        </mxCell>
        <mxCell id="WXc_VqxErk6z-LHr27t_-28" style="edgeStyle=orthogonalEdgeStyle;rounded=0;orthogonalLoop=1;jettySize=auto;html=1;entryX=0;entryY=0.5;entryDx=0;entryDy=0;" edge="1" parent="WXc_VqxErk6z-LHr27t_-1" source="WXc_VqxErk6z-LHr27t_-6" target="WXc_VqxErk6z-LHr27t_-14">
          <mxGeometry relative="1" as="geometry" />
        </mxCell>
        <mxCell id="WXc_VqxErk6z-LHr27t_-29" value="" style="edgeStyle=orthogonalEdgeStyle;rounded=0;orthogonalLoop=1;jettySize=auto;html=1;" edge="1" parent="WXc_VqxErk6z-LHr27t_-1" source="WXc_VqxErk6z-LHr27t_-14" target="WXc_VqxErk6z-LHr27t_-7">
          <mxGeometry relative="1" as="geometry">
            <Array as="points">
              <mxPoint x="375" y="210" />
              <mxPoint x="125" y="210" />
            </Array>
          </mxGeometry>
        </mxCell>
        <mxCell id="WXc_VqxErk6z-LHr27t_-30" value="" style="edgeStyle=orthogonalEdgeStyle;rounded=0;orthogonalLoop=1;jettySize=auto;html=1;entryX=0;entryY=0.5;entryDx=0;entryDy=0;exitX=1;exitY=0.5;exitDx=0;exitDy=0;" edge="1" parent="WXc_VqxErk6z-LHr27t_-1" source="WXc_VqxErk6z-LHr27t_-7" target="WXc_VqxErk6z-LHr27t_-15">
          <mxGeometry relative="1" as="geometry">
            <mxPoint x="210" y="290" as="sourcePoint" />
            <Array as="points" />
          </mxGeometry>
        </mxCell>
        <mxCell id="WXc_VqxErk6z-LHr27t_-33" style="edgeStyle=orthogonalEdgeStyle;rounded=0;orthogonalLoop=1;jettySize=auto;html=1;entryX=0.5;entryY=1;entryDx=0;entryDy=0;" edge="1" parent="WXc_VqxErk6z-LHr27t_-1" source="WXc_VqxErk6z-LHr27t_-16" target="WXc_VqxErk6z-LHr27t_-7">
          <mxGeometry relative="1" as="geometry" />
        </mxCell>
        <mxCell id="WXc_VqxErk6z-LHr27t_-35" value="" style="edgeStyle=orthogonalEdgeStyle;rounded=0;orthogonalLoop=1;jettySize=auto;html=1;" edge="1" parent="WXc_VqxErk6z-LHr27t_-1" source="WXc_VqxErk6z-LHr27t_-27" target="WXc_VqxErk6z-LHr27t_-25">
          <mxGeometry relative="1" as="geometry">
            <Array as="points">
              <mxPoint x="875" y="680" />
            </Array>
          </mxGeometry>
        </mxCell>
        <mxCell id="WXc_VqxErk6z-LHr27t_-36" value="" style="edgeStyle=orthogonalEdgeStyle;rounded=0;orthogonalLoop=1;jettySize=auto;html=1;" edge="1" parent="WXc_VqxErk6z-LHr27t_-1" source="WXc_VqxErk6z-LHr27t_-25" target="WXc_VqxErk6z-LHr27t_-17">
          <mxGeometry relative="1" as="geometry" />
        </mxCell>
        <mxCell id="WXc_VqxErk6z-LHr27t_-41" value="" style="edgeStyle=orthogonalEdgeStyle;rounded=0;orthogonalLoop=1;jettySize=auto;html=1;entryX=0.5;entryY=0;entryDx=0;entryDy=0;" edge="1" parent="WXc_VqxErk6z-LHr27t_-1" source="WXc_VqxErk6z-LHr27t_-15" target="WXc_VqxErk6z-LHr27t_-42">
          <mxGeometry relative="1" as="geometry">
            <mxPoint x="617.5" y="315" as="targetPoint" />
          </mxGeometry>
        </mxCell>
        <mxCell id="WXc_VqxErk6z-LHr27t_-64" style="edgeStyle=orthogonalEdgeStyle;rounded=0;orthogonalLoop=1;jettySize=auto;html=1;entryX=1;entryY=0.5;entryDx=0;entryDy=0;exitX=0;exitY=0.5;exitDx=0;exitDy=0;" edge="1" parent="WXc_VqxErk6z-LHr27t_-1" source="WXc_VqxErk6z-LHr27t_-45" target="WXc_VqxErk6z-LHr27t_-63">
          <mxGeometry relative="1" as="geometry" />
        </mxCell>
        <mxCell id="WXc_VqxErk6z-LHr27t_-65" style="edgeStyle=orthogonalEdgeStyle;rounded=0;orthogonalLoop=1;jettySize=auto;html=1;entryX=0.5;entryY=1;entryDx=0;entryDy=0;" edge="1" parent="WXc_VqxErk6z-LHr27t_-1" source="WXc_VqxErk6z-LHr27t_-63" target="WXc_VqxErk6z-LHr27t_-7">
          <mxGeometry relative="1" as="geometry" />
        </mxCell>
        <mxCell id="WXc_VqxErk6z-LHr27t_-81" style="edgeStyle=orthogonalEdgeStyle;rounded=0;orthogonalLoop=1;jettySize=auto;html=1;entryX=1;entryY=0.5;entryDx=0;entryDy=0;" edge="1" parent="WXc_VqxErk6z-LHr27t_-1" source="WXc_VqxErk6z-LHr27t_-77" target="WXc_VqxErk6z-LHr27t_-16">
          <mxGeometry relative="1" as="geometry" />
        </mxCell>
        <mxCell id="WXc_VqxErk6z-LHr27t_-83" style="edgeStyle=orthogonalEdgeStyle;rounded=0;orthogonalLoop=1;jettySize=auto;html=1;" edge="1" parent="WXc_VqxErk6z-LHr27t_-1" source="WXc_VqxErk6z-LHr27t_-78" target="WXc_VqxErk6z-LHr27t_-27">
          <mxGeometry relative="1" as="geometry" />
        </mxCell>
        <mxCell id="WXc_VqxErk6z-LHr27t_-86" value="" style="edgeStyle=orthogonalEdgeStyle;rounded=0;orthogonalLoop=1;jettySize=auto;html=1;" edge="1" parent="WXc_VqxErk6z-LHr27t_-1" source="WXc_VqxErk6z-LHr27t_-17" target="WXc_VqxErk6z-LHr27t_-85">
          <mxGeometry relative="1" as="geometry" />
        </mxCell>
      </root>
    </mxGraphModel>
  </diagram>
</mxfile>
